<svg width="92" height="20" viewBox="0 0 92 20" fill="none" xmlns="http://www.w3.org/2000/svg"><path d="M49.6934 6.52372H51.7362V12.144C51.7362 14.9969 50.1465 16.6332 47.3772 16.6332C44.6366 16.6332 43.0613 15.0253 43.0613 12.2223V6.53083H45.1041V12.1582C45.1041 13.823 45.9314 14.7123 47.4059 14.7123C48.8805 14.7123 49.6934 13.8443 49.6934 12.2294V6.52372ZM38.1843 10.5362H33.5663V6.52372H31.5234V16.4838H33.5663V12.4357H38.1771V16.4838H40.22V6.52372H38.1771V10.5362H38.1843ZM89.3421 6.52372V16.4695H91.3562V6.52372H89.3421ZM81.3217 12.1938H85.0406V10.3797H81.3217V8.33786H86.7166V6.53083H79.3076V16.4766H86.9108V14.6625H81.3217V12.1938ZM73.3085 13.3677L71.0211 6.5166H69.3523L67.0649 13.3677L64.8422 6.52372H62.6698L66.1801 16.4766H67.8705L70.1579 9.93858L72.4454 16.4766H74.1501L77.6532 6.52372H75.5312L73.3085 13.3677ZM59.0373 6.58063L63.4323 16.4766H61.2888L60.3824 14.4064H55.7716L55.7069 14.5487L54.8581 16.4766H52.772L57.2102 6.52372H58.9941L59.0373 6.58063ZM59.5264 12.3717L58.0734 9.03507L56.6276 12.3717L56.5269 12.5993H59.6199L59.5264 12.3717Z" fill="#D1D5DC"></path><path d="M11.4087 15.4238C11.4374 15.4025 11.4446 15.3598 11.4303 15.3242C9.44679 11.1078 6.97237 7.13483 4.05725 3.48601C4.05725 3.48601 1.74105 5.66299 1.9065 7.84708C1.94525 8.35062 2.084 8.84166 2.31481 9.29212C2.54562 9.74257 2.86396 10.1436 3.25162 10.4723C5.2729 12.4216 10.1643 14.8831 11.3008 15.4452C11.3367 15.4594 11.3799 15.4523 11.4087 15.4238ZM10.6534 17.0886C10.639 17.0459 10.5958 17.0174 10.5455 17.0174L2.40283 17.2949C3.28759 18.8529 4.77657 20.0624 6.3231 19.6924C7.39488 19.4292 9.81179 17.7573 10.6102 17.1882C10.675 17.1384 10.6534 17.0957 10.6534 17.0886ZM10.7757 16.37C10.8188 16.306 10.7469 16.2491 10.7469 16.2491C7.1719 13.8587 0.237682 10.1877 0.237682 10.1877C0.00784547 10.8844 -0.05645 11.6242 0.0497929 12.3495C0.156036 13.0749 0.429956 13.7662 0.850263 14.3698C1.27057 14.9734 1.82594 15.473 2.47322 15.8297C3.1205 16.1865 3.84224 16.3909 4.58236 16.4269C4.70464 16.4483 9.42336 16.4269 10.6894 16.4198C10.7253 16.4127 10.7541 16.3985 10.7757 16.37ZM11.3152 0.00711431C10.9627 0.0355715 10.006 0.256115 10.006 0.256115C7.84805 0.803917 7.33734 2.74612 7.33734 2.74612C6.94171 3.96267 7.34453 5.30727 7.34453 5.30727C8.06385 8.46603 11.6029 13.6666 12.3654 14.7551C12.4157 14.812 12.4589 14.7906 12.4589 14.7906C12.502 14.7764 12.538 14.7408 12.538 14.691C13.7177 3.0805 11.3152 0.00711431 11.3152 0.00711431ZM14.0126 14.7764C14.0558 14.7906 14.1061 14.7764 14.1277 14.7337C14.9117 13.6168 18.4292 8.44468 19.1485 5.30016C19.1485 5.30016 19.5369 3.7777 19.1629 2.73901C19.1629 2.73901 18.6306 0.768345 16.4727 0.249001C16.4727 0.249001 15.854 0.092486 15.1923 0C15.1923 0 12.7754 3.07338 13.9551 14.6839C13.9479 14.7266 13.9766 14.7622 14.0126 14.7764ZM15.9404 17.0245C15.9212 17.0284 15.903 17.036 15.8869 17.047C15.8709 17.058 15.8572 17.0722 15.8469 17.0886C15.8397 17.1313 15.8469 17.1668 15.8756 17.1953C16.6525 17.7502 19.019 19.3865 20.1556 19.6995C20.1556 19.6995 22.2632 20.411 24.0902 17.302L15.9404 17.0245ZM26.2626 10.1735C26.2626 10.1735 19.3427 13.8516 15.7605 16.242C15.7246 16.2704 15.703 16.3131 15.7174 16.3558C15.7174 16.3558 15.7533 16.4198 15.8037 16.4198C17.0841 16.4198 21.9323 16.4269 22.0618 16.4056C22.5437 16.37 23.0184 16.2633 23.4644 16.0855C23.4644 16.0855 25.1908 15.5448 26.0827 13.6026C26.0827 13.6026 26.8812 12.0232 26.2626 10.1735ZM15.106 15.4238C15.1347 15.4452 15.1779 15.4523 15.2139 15.4309C16.3791 14.8547 21.2345 12.4145 23.2414 10.4723C23.2414 10.4723 24.5146 9.46203 24.5794 7.83285C24.7232 5.57762 22.4286 3.48601 22.4286 3.48601C22.4286 3.48601 18.1846 8.57274 15.07 15.2958C15.065 15.3184 15.0657 15.3419 15.0719 15.3642C15.0782 15.3865 15.0899 15.407 15.106 15.4238Z" fill="#D1D5DC"></path></svg>