<svg width="83" height="20" viewBox="0 0 83 20" fill="none" xmlns="http://www.w3.org/2000/svg"><path d="M73.8703 6.65528C74.3387 6.65528 74.7242 6.41443 74.7763 6.10326L75.2387 0.930928C75.2387 0.419694 74.6332 0 73.8718 0C73.1112 0 72.5062 0.419691 72.5062 0.931019L72.9683 6.10326C73.0192 6.41434 73.4047 6.65528 73.8719 6.65528H73.8703ZM71.0439 8.27084C71.2788 7.87016 71.2611 7.41983 71.0134 7.21976L66.7149 4.23753C66.268 3.98154 65.5979 4.28967 65.2176 4.942C64.836 5.5935 64.9036 6.32113 65.3494 6.57721L70.109 8.76906C70.4066 8.87814 70.8123 8.6682 71.0454 8.26779L71.0439 8.27084ZM76.6993 8.26807C76.9338 8.66847 77.3375 8.87851 77.6353 8.76934L82.395 6.57749C82.8435 6.3215 82.9072 5.59378 82.5292 4.94228C82.147 4.29059 81.4757 3.98182 81.0299 4.2378L76.7312 7.22004C76.4854 7.41983 76.4671 7.87053 76.7008 8.27112L76.6993 8.26807ZM73.8703 13.1163C74.3387 13.1163 74.7242 13.3551 74.7763 13.6666L75.2387 18.8382C75.2387 19.351 74.6332 19.7697 73.8718 19.7697C73.1112 19.7697 72.5062 19.351 72.5062 18.8382L72.9683 13.6666C73.0192 13.3551 73.4047 13.1163 73.8719 13.1163H73.8703ZM76.6993 11.5004C76.9338 11.0989 77.3375 10.8907 77.6353 11.0011L82.395 13.1914C82.8435 13.4477 82.9072 14.1761 82.5292 14.8281C82.147 15.4777 81.4757 15.7873 81.0299 15.5317L76.7312 12.5522C76.4854 12.3508 76.4671 11.8999 76.7008 11.4996H76.6989M71.0439 11.4998C71.2788 11.8999 71.2611 12.3508 71.0134 12.5526L66.7149 15.5319C66.268 15.7876 65.5979 15.478 65.2176 14.8284C64.836 14.1763 64.9036 13.448 65.3494 13.1917L70.109 11.0013C70.4066 10.891 70.8123 11.0991 71.0454 11.5008H71.0439" fill="#D1D5DC"></path><path d="M46.7564 12.5429C46.7564 12.7017 46.7422 12.8654 46.6982 13.0091C46.5159 13.6063 45.8908 14.1112 45.1087 14.1112C44.4566 14.1112 43.9387 13.7449 43.9387 12.9711C43.9387 11.7869 45.2566 11.4598 46.7568 11.468L46.7564 12.5428V12.5429ZM49.1096 10.4792C49.1096 8.52642 48.2659 6.80815 45.4153 6.80815C43.952 6.80815 42.7907 7.21465 42.1568 7.57694L42.621 9.14682C43.2004 8.78508 44.1237 8.48563 44.9975 8.48563C46.4434 8.48166 46.6802 9.29548 46.6802 9.81631V9.9396C43.5283 9.93499 41.5359 11.0144 41.5359 13.2133C41.5359 14.5569 42.5507 15.8153 44.3147 15.8153C45.3986 15.8153 46.3064 15.3874 46.8497 14.7013H46.9034C46.9034 14.7013 47.2629 16.1909 49.2476 15.621C49.144 15.0015 49.1099 14.3402 49.1099 13.545L49.1096 10.4792M0 4.14881C0 4.14881 2.05968 12.496 2.38857 13.8506C2.77223 15.4319 3.46371 16.014 5.45639 15.621L6.74239 10.446C7.06849 9.16001 7.28672 8.24311 7.49684 6.93624H7.53342C7.68093 8.25696 7.89021 9.16398 8.15855 10.4503C8.15855 10.4503 8.6818 12.7997 8.95023 14.0334C9.21895 15.2666 9.96687 16.0443 11.919 15.621L14.9834 4.14844H12.5099L11.4633 9.1088C11.1819 10.5521 10.9268 11.6811 10.7299 13.0012H10.6949C10.5161 11.6927 10.2883 10.6097 10.0025 9.2032L8.91366 4.14844H6.33605L5.17069 9.07576C4.84087 10.5735 4.53156 11.7824 4.33563 13.0585H4.29999C4.09882 11.8568 3.83104 10.3369 3.54124 8.88779C3.54124 8.88779 2.8494 5.36331 2.60606 4.14844L0 4.14881ZM19.6622 12.5429C19.6622 12.7017 19.6479 12.8654 19.6033 13.0091C19.4214 13.6063 18.7959 14.1112 18.0138 14.1112C17.3616 14.1112 16.8445 13.7449 16.8445 12.9711C16.8445 11.7869 18.162 11.4598 19.6625 11.468L19.6622 12.5428V12.5429ZM22.0151 10.4792C22.0151 8.52642 21.1714 6.80815 18.3214 6.80815C16.8577 6.80815 15.6954 7.21465 15.0619 7.57694L15.5256 9.14682C16.1048 8.78508 17.0282 8.48563 17.9022 8.48563C19.3492 8.48166 19.586 9.29548 19.586 9.81631V9.9396C16.4328 9.93499 14.4413 11.0144 14.4413 13.2133C14.4413 14.5569 15.4555 15.8153 17.2182 15.8153C18.3036 15.8153 19.2109 15.3874 19.7549 14.7013H19.8079C19.8079 14.7013 20.1684 16.1909 22.1526 15.621C22.0488 15.0015 22.0151 14.3402 22.0151 13.545V10.4792ZM25.9418 13.1857V4.14881H23.5859V15.6213H25.9418V13.1857ZM56.7615 4.14881V12.6119C56.7615 13.7792 56.984 14.5962 57.4584 15.0962C57.8742 15.5333 58.5573 15.8162 59.3765 15.8162C60.0733 15.8162 60.7583 15.6847 61.0816 15.5661L61.0512 13.7458C60.8107 13.8039 60.5345 13.851 60.1564 13.851C59.3536 13.851 59.0852 13.3424 59.0852 12.2949V9.05675H61.1367V6.8614H59.0852V4.14881H56.7615ZM50.6805 7.00277V15.6213H53.1108V11.2085C53.1108 10.9699 53.1253 10.7621 53.1635 10.572C53.3433 9.64717 54.058 9.05675 55.0846 9.05675C55.366 9.05675 55.5675 9.08702 55.7857 9.11766V6.8614C55.6025 6.82531 55.4783 6.80843 55.2504 6.80843C54.3435 6.80843 53.3117 7.38721 52.8786 8.62875H52.813V7.00277H50.6805ZM27.5914 7.00277V15.6213H29.9592V10.5674C29.9592 10.3302 29.9874 10.0794 30.0704 9.86199C30.2666 9.35316 30.7455 8.75721 31.5095 8.75721C32.4654 8.75721 32.9118 9.55608 32.9118 10.709V15.6207H35.2777V10.5052C35.2777 10.2789 35.3089 10.0061 35.3766 9.80663C35.5708 9.22747 36.0866 8.75656 36.797 8.75656C37.7656 8.75656 38.2306 9.54141 38.2306 10.8985V15.6204H40.598V10.544C40.598 7.86726 39.2237 6.8076 37.672 6.8076C36.9855 6.8076 36.443 6.97767 35.9525 7.275C35.5405 7.526 35.171 7.88165 34.8487 8.34914H34.8137C34.4395 7.42034 33.5592 6.80806 32.4121 6.80806C30.9383 6.80806 30.276 7.54695 29.8742 8.17354H29.8389V7.00249H27.5914" fill="#D1D5DC"></path></svg>