<svg width="82" height="27" viewBox="0 0 82 27" fill="none" xmlns="http://www.w3.org/2000/svg"><path d="M0 0H17.7528V8.86375H8.87638L0 0ZM0 8.86375H8.87638L17.7528 17.7275H0V8.86375ZM0 17.7275H8.87638V26.5913L0 17.7275Z" fill="#D1D5DC"></path><path d="M27.7695 6.99264H34.9455V9.26971H30.4856V12.4341H34.9455V14.6609H30.4856V18.7126H27.7695V6.99264ZM36.4209 10.6424H38.9863V12.3335C39.1203 11.7524 39.3944 11.3063 39.8078 10.994C40.2318 10.67 40.7025 10.5086 41.2162 10.5086C41.4847 10.5086 41.7085 10.5313 41.8867 10.5755V12.9532C41.6309 12.9223 41.3734 12.9057 41.1155 12.9029C40.4113 12.9029 39.8809 13.1312 39.5228 13.589C39.1658 14.0355 38.9863 14.7051 38.9863 15.5985V18.7126H36.4221V10.6424H36.4209ZM45.9365 18.9303C45.1543 18.9303 44.472 18.7458 43.8909 18.3776C43.3207 18.0094 42.8675 17.4866 42.5832 16.8706C42.2815 16.2238 42.1296 15.4918 42.1296 14.6775C42.1296 13.8737 42.2872 13.1478 42.5999 12.501C42.8931 11.8761 43.3585 11.3477 43.9412 10.9774C44.533 10.6092 45.2095 10.4247 45.9702 10.4247C46.54 10.4247 47.0492 10.5479 47.496 10.7933C47.9427 11.0395 48.2781 11.3744 48.5019 11.7978V10.6424H51.0502V18.7126H48.5019V17.5738C48.2781 17.9757 47.9317 18.3046 47.4622 18.5617C46.9928 18.8103 46.4681 18.9368 45.9365 18.9303ZM46.6744 16.8037C47.2888 16.8037 47.764 16.603 48.0994 16.2011C48.4349 15.7992 48.6026 15.2911 48.6026 14.6775C48.6026 14.0749 48.4349 13.5724 48.0994 13.1705C47.764 12.7687 47.2888 12.5679 46.6744 12.5679C46.0924 12.5679 45.6238 12.763 45.266 13.1539C44.9196 13.5448 44.7462 14.0522 44.7462 14.6775C44.7462 15.3028 44.9196 15.8158 45.266 16.2177C45.6238 16.6087 46.0932 16.8037 46.6744 16.8037ZM52.8444 10.6424H55.4098V11.8144C55.5893 11.4008 55.8793 11.0658 56.2814 10.8099C56.6956 10.554 57.176 10.4247 57.7235 10.4247C58.9978 10.4247 59.8422 10.921 60.2552 11.915C60.4826 11.4645 60.8383 11.0918 61.2782 10.8436C61.7484 10.5609 62.2886 10.4162 62.8372 10.4247C64.7488 10.4247 65.7044 11.518 65.7044 13.7062V18.7126H63.1223V14.175C63.1223 13.6288 63.0216 13.2269 62.8206 12.9698C62.6191 12.7135 62.3174 12.5845 61.9149 12.5845C61.4792 12.5845 61.1437 12.7354 60.909 13.0367C60.6743 13.3271 60.5569 13.8344 60.5569 14.5603V18.7126H57.9748V14.1584C57.9748 13.6118 57.8745 13.2151 57.6731 12.9698C57.4839 12.7135 57.187 12.5845 56.7853 12.5845C56.3378 12.5845 55.9967 12.7354 55.7619 13.0367C55.5272 13.3271 55.4098 13.8344 55.4098 14.5603V18.7126H52.8452V10.6424H52.8444ZM75.3414 14.259C75.3414 14.6045 75.3187 14.9788 75.2732 15.3807H69.3054C69.3281 15.9055 69.5064 16.3065 69.8418 16.5863C70.1773 16.865 70.6309 17.0049 71.1999 17.0049C71.9938 17.0049 72.497 16.7644 72.709 16.2846H75.224C75.1006 17.0774 74.6648 17.7186 73.916 18.2101C73.1785 18.6898 72.2728 18.9303 71.1999 18.9303C69.8142 18.9303 68.7242 18.556 67.9303 17.8082C67.1481 17.06 66.7566 16.017 66.7566 14.6775C66.7566 13.8068 66.9353 13.0533 67.2931 12.4171C67.6387 11.7816 68.1715 11.2674 68.8188 10.9438C69.4788 10.5982 70.2443 10.4247 71.117 10.4247C71.9435 10.4247 72.6753 10.5865 73.3125 10.9105C73.9606 11.2345 74.4585 11.6863 74.8045 12.2666C75.1627 12.8477 75.3414 13.5116 75.3414 14.259ZM72.8085 13.7902C72.7975 13.2545 72.6469 12.8465 72.3557 12.5679C72.0657 12.2893 71.6458 12.1494 71.0984 12.1494C70.5509 12.1494 70.1152 12.2999 69.7907 12.6016C69.478 12.8919 69.3159 13.2877 69.3041 13.7902H72.8085ZM76.4724 10.6424H79.0378V12.3335C79.1719 11.7524 79.446 11.3063 79.8594 10.994C80.2606 10.6785 80.7569 10.5074 81.2678 10.5086C81.5358 10.5086 81.76 10.5313 81.9383 10.5755V12.9532C81.6824 12.9223 81.4249 12.9057 81.1671 12.9029C80.4629 12.9029 79.9325 13.1312 79.5743 13.589C79.2161 14.0355 79.0378 14.7051 79.0378 15.5985V18.7126H76.4724V10.6424Z" fill="#D1D5DC"></path></svg>