<svg width="83" height="23" viewBox="0 0 83 23" fill="none" xmlns="http://www.w3.org/2000/svg"><path d="M4.25005 0.0799166C2.55988 0.768278 0.701823 2.71299 0.114987 5.15401C-0.628195 8.24689 2.46453 9.55477 2.7182 9.12593C3.01676 8.62204 2.16402 8.45164 1.98849 6.84692C1.76163 4.77428 2.75196 2.45833 3.99833 1.44216C4.23 1.25337 4.21898 1.51614 4.21898 2.00218C4.21898 2.87135 4.16962 10.6739 4.16962 12.3023C4.16962 14.5057 4.07609 15.2015 3.90809 15.889C3.73788 16.5858 3.46424 17.0566 3.67159 17.2379C3.90326 17.4408 4.89239 16.9582 5.46501 16.1806C6.15167 15.248 6.39204 14.128 6.43519 12.9117C6.48731 11.4454 6.48509 9.11881 6.48731 7.79173C6.4894 6.57459 6.50839 3.01055 6.46539 0.867981C6.45485 0.342452 4.95689 -0.208904 4.24997 0.0792773M64.2679 10.3918C64.2134 11.5373 63.9528 12.4326 63.6293 13.0642C63.0032 14.2868 61.7039 14.6665 61.1522 12.9089C60.8516 11.9508 60.8375 10.3507 61.0537 9.01377C61.2737 7.65179 61.888 6.62319 62.9053 6.71595C63.9087 6.80765 64.3784 8.06563 64.2679 10.3917V10.3918ZM47.3524 17.4987C47.3387 19.4021 47.0309 21.0709 46.3707 21.5556C45.4343 22.2429 44.1757 21.7273 44.4363 20.3385C44.6669 19.1094 45.7574 17.8543 47.355 16.3207C47.355 16.3207 47.3584 16.6704 47.3524 17.4987H47.3524ZM47.0966 10.3807C47.0394 11.424 46.7614 12.4721 46.4581 13.0643C45.8321 14.287 44.5233 14.6692 43.9809 12.909C43.6101 11.7064 43.6989 10.1499 43.8824 9.16916C44.1205 7.89671 44.6976 6.71622 45.7341 6.71622C46.7418 6.71622 47.2387 7.7919 47.0966 10.3807V10.3807ZM37.2974 10.3647C37.236 11.4697 37.0144 12.3934 36.6589 13.0643C36.0156 14.2785 34.743 14.6636 34.1818 12.909C33.7771 11.6438 33.9149 9.91864 34.0832 8.98672C34.333 7.60379 34.9585 6.62332 35.9349 6.71622C36.9379 6.81156 37.4255 8.06576 37.2974 10.3648V10.3647ZM82.2049 11.6554C81.9597 11.6554 81.8478 11.9013 81.7552 12.3152C81.4342 13.7544 81.0967 14.0794 80.6615 14.0794C80.1753 14.0794 79.7384 13.3667 79.6261 11.9402C79.5379 10.8185 79.552 8.75332 79.6649 6.69906C79.688 6.27699 79.5683 5.85938 78.4048 5.44812C77.9041 5.27122 77.1764 5.01076 76.814 5.86181C75.7902 8.26619 75.3896 10.1751 75.2954 10.9505C75.2905 10.9907 75.2399 10.9988 75.231 10.9051C75.171 10.284 75.0367 9.15537 75.02 6.78413C75.0168 6.32148 74.916 5.92767 74.3912 5.60526C74.0507 5.39606 73.0166 5.02605 72.6442 5.46624C72.3216 5.82624 71.948 6.79508 71.5598 7.94351C71.2443 8.87692 71.0245 9.50835 71.0245 9.50835C71.0245 9.50835 71.0287 6.98983 71.0324 6.03451C71.0341 5.6741 70.78 5.55401 70.7034 5.53224C70.3586 5.43486 69.6792 5.27218 69.3908 5.27218C69.0349 5.27218 68.9478 5.4657 68.9478 5.74767C68.9478 5.78459 68.8916 9.06355 68.8916 11.3564C68.8916 11.4559 68.8916 11.5646 68.8927 11.68C68.6959 12.7338 68.0576 14.1643 67.3635 14.1643C66.6685 14.1643 66.3406 13.5663 66.3406 10.8329C66.3406 9.23833 66.3898 8.54497 66.414 7.39167C66.428 6.72738 66.4552 6.21726 66.4536 6.1015C66.4485 5.74651 65.8176 5.56758 65.524 5.50146C65.2291 5.43478 64.9728 5.40895 64.7727 5.42004C64.4894 5.43559 64.289 5.61641 64.289 5.86511C64.289 5.99845 64.2905 6.25202 64.2905 6.25202C63.9257 5.69417 63.3388 5.3059 62.9484 5.19339C61.8968 4.88951 60.7994 5.15876 59.9717 6.2857C59.3139 7.18111 58.9173 8.19525 58.7612 9.6523C58.6471 10.7175 58.6844 11.7977 58.8871 12.7112C58.6421 13.742 58.1872 14.1643 57.689 14.1643C56.9658 14.1643 56.4416 13.0158 56.5024 11.0295C56.5426 9.72308 56.8113 8.80624 57.105 7.47984C57.2302 6.91441 57.1285 6.61838 56.8733 6.33465C56.6392 6.07446 56.1405 5.94152 55.4236 6.10502C54.9129 6.22159 54.1828 6.34695 53.5148 6.44325C53.5148 6.44325 53.5551 6.28678 53.5882 6.0109C53.7619 4.56413 52.1461 4.68151 51.6306 5.14361C51.3228 5.4195 51.1134 5.74488 51.0339 6.32992C50.9078 7.25833 51.686 7.69623 51.686 7.69623C51.4307 8.83343 50.8048 10.319 50.1586 11.3931C49.8125 11.9685 49.5478 12.3949 49.206 12.8482C49.2047 12.6794 49.2038 12.5107 49.2031 12.3427C49.1953 9.9518 49.228 8.07011 49.2425 7.39189C49.2565 6.72762 49.2839 6.23102 49.2824 6.11526C49.2785 5.8556 49.1227 5.75755 48.7985 5.6334C48.5119 5.5236 48.1731 5.44759 47.8216 5.42108C47.3779 5.38741 47.1106 5.61637 47.1175 5.88711C47.1189 5.93823 47.1189 6.25212 47.1189 6.25212C46.754 5.69426 46.1672 5.306 45.7768 5.19348C44.7251 4.88973 43.6278 5.15899 42.8001 6.28579C42.1424 7.1812 41.7116 8.43769 41.5896 9.6413C41.4759 10.7631 41.4969 11.7164 41.6519 12.5194C41.4847 13.3235 41.0039 14.1644 40.4603 14.1644C39.7653 14.1644 39.3699 13.5664 39.3699 10.833C39.3699 9.23843 39.4191 8.54507 39.4433 7.39189C39.4573 6.72762 39.4844 6.21736 39.4829 6.10174C39.4778 5.74674 38.8468 5.56782 38.5533 5.50155C38.2461 5.43245 37.9809 5.40702 37.7773 5.42162C37.5086 5.4411 37.3197 5.6752 37.3197 5.84979V6.25212C36.9548 5.69426 36.368 5.306 35.9776 5.19348C34.926 4.88973 33.8347 5.16333 33.0009 6.28579C32.4572 7.01769 32.017 7.82912 31.7904 9.62534C31.7249 10.1444 31.696 10.6305 31.6998 11.0848C31.4829 12.375 30.5253 13.862 29.7419 13.862C29.2835 13.862 28.8469 12.997 28.8469 11.1533C28.8469 8.69734 29.0032 5.20065 29.0296 4.86364C29.0296 4.86364 30.0193 4.84728 30.211 4.84511C30.7047 4.83983 31.1519 4.85119 31.8094 4.81847C32.1393 4.8021 32.457 3.65042 32.1166 3.50789C31.9623 3.44338 30.8719 3.38685 30.4397 3.37792C30.0762 3.36991 29.0643 3.29705 29.0643 3.29705C29.0643 3.29705 29.1551 0.976103 29.1762 0.730925C29.1941 0.526579 28.9224 0.421368 28.7666 0.357528C28.3877 0.201603 28.0487 0.126947 27.6469 0.0463474C27.0917 -0.0650824 26.8399 0.043913 26.7907 0.499798C26.7166 1.19168 26.6782 3.2182 26.6782 3.2182C26.2708 3.2182 24.8792 3.14072 24.4717 3.14072C24.0931 3.14072 23.6844 4.72502 24.2079 4.74449C24.8101 4.76721 25.8597 4.78682 26.5555 4.80725C26.5555 4.80725 26.5245 8.36155 26.5245 9.45886C26.5245 9.57561 26.5255 9.68804 26.5257 9.79712C26.1428 11.7391 24.794 12.7882 24.794 12.7882C25.0837 11.5034 24.492 10.5386 23.4262 9.72193C23.0335 9.42097 22.2584 8.85122 21.391 8.22688C21.391 8.22688 21.8934 7.74516 22.3388 6.77606C22.6545 6.08959 22.6681 5.30399 21.8934 5.13076C20.6132 4.84433 19.5577 5.75907 19.2429 6.73562C18.999 7.49213 19.1291 8.0535 19.6069 8.63664C19.6418 8.67925 19.6796 8.72279 19.7187 8.76661C19.4297 9.30853 19.0327 10.0381 18.6965 10.6039C17.7633 12.1749 17.0583 13.4174 16.5256 13.4174C16.0997 13.4174 16.1054 12.1559 16.1054 10.9748C16.1054 9.95653 16.1827 8.42567 16.2444 6.8407C16.2648 6.31652 15.9954 6.01791 15.5439 5.74744C15.2695 5.58313 14.6839 5.26005 14.3448 5.26005C13.8371 5.26005 12.3726 5.32726 10.9888 9.22195C10.8144 9.71285 10.4718 10.6073 10.4718 10.6073L10.5013 5.92379C10.5013 5.81398 10.4411 5.70781 10.3035 5.63519C10.0703 5.51199 9.44751 5.26005 8.8937 5.26005C8.62984 5.26005 8.49816 5.37946 8.49816 5.61748L8.44986 12.9449C8.44986 13.5016 8.46478 14.1511 8.52135 14.4352C8.57772 14.7196 8.66903 14.951 8.78213 15.0887C8.89506 15.2261 9.02569 15.3309 9.24107 15.3742C9.44153 15.4143 10.5392 15.5515 10.5963 15.1433C10.6646 14.6542 10.6672 14.1251 11.2436 12.152C12.1409 9.08009 13.3109 7.58125 13.8609 7.04896C13.957 6.95592 14.0668 6.95037 14.0615 7.10265C14.0381 7.77613 13.9555 9.45903 13.8999 10.8888C13.7509 14.7149 14.4663 15.4241 15.4886 15.4241C16.2707 15.4241 17.3732 14.6679 18.5551 12.754C19.2919 11.5612 20.0073 10.3916 20.5213 9.54869C20.8795 9.87131 21.2814 10.2185 21.6831 10.5895C22.6166 11.4515 22.9231 12.2706 22.7198 13.0477C22.5642 13.6417 21.9785 14.2539 20.936 13.6589C20.6322 13.4853 20.5025 13.3512 20.197 13.1555C20.0329 13.0503 19.7823 13.0189 19.632 13.129C19.2417 13.4154 19.0185 13.7796 18.891 14.2304C18.7671 14.6692 19.2186 14.9011 19.6868 15.1039C20.0898 15.2785 20.9562 15.4367 21.5087 15.4548C23.6614 15.5248 25.3859 14.4434 26.5864 11.654C26.8013 14.063 27.7159 15.4262 29.3049 15.4262C30.3672 15.4262 31.4323 14.0902 31.8981 12.7758C32.0318 13.3116 32.2297 13.7775 32.4853 14.1715C33.7097 16.059 36.085 15.6527 37.2781 14.0499C37.647 13.5547 37.7031 13.3767 37.7031 13.3767C37.8771 14.8901 39.1298 15.4189 39.847 15.4189C40.6502 15.4189 41.4796 15.0495 42.0608 13.7762C42.129 13.9144 42.2033 14.0463 42.2845 14.1714C43.5089 16.059 45.8841 15.6527 47.0773 14.0499C47.1336 13.9747 47.1823 13.9065 47.225 13.8453L47.26 14.8394C47.26 14.8394 46.5794 15.4469 46.1616 15.8196C44.3227 17.4611 42.9244 18.7065 42.8216 20.1568C42.6895 22.006 44.231 22.6933 45.3971 22.7834C46.6355 22.879 47.6961 22.2134 48.3479 21.2818C48.9213 20.4619 49.2966 18.6972 49.2691 16.9542C49.2581 16.2563 49.24 15.3688 49.2258 14.4176C49.8721 13.6873 50.6003 12.7643 51.2708 11.6839C52.0015 10.5065 52.7846 8.92534 53.1856 7.69482C53.1856 7.69482 53.866 7.7005 54.5921 7.65425C54.8243 7.63951 54.8911 7.68561 54.8481 7.85129C54.7963 8.05143 53.9308 11.2996 54.7207 13.4634C55.2613 14.9446 56.4802 15.4212 57.2028 15.4212C58.0487 15.4212 58.8579 14.7996 59.2916 13.8766C59.3439 13.9795 59.3985 14.0791 59.4581 14.171C60.6825 16.0585 63.0494 15.6499 64.2509 14.0495C64.5221 13.6884 64.6759 13.3763 64.6759 13.3763C64.9338 14.9426 66.1857 15.4265 66.9027 15.4265C67.6497 15.4265 68.3586 15.1285 68.9337 13.8044C68.9578 14.3874 68.9956 14.8641 69.0553 15.0144C69.0918 15.1063 69.304 15.2217 69.4584 15.2775C70.1417 15.524 70.8386 15.4074 71.0965 15.3567C71.2751 15.3215 71.4143 15.1821 71.4334 14.8221C71.4834 13.8768 71.4527 12.2885 71.7472 11.1082C72.2416 9.12724 72.7028 8.35883 72.9216 7.97841C73.044 7.76527 73.1822 7.73011 73.1872 7.95569C73.1975 8.41211 73.2208 9.75245 73.4124 11.5533C73.553 12.8777 73.741 13.6605 73.8854 13.9083C74.2975 14.6168 74.8065 14.6503 75.221 14.6503C75.4846 14.6503 76.036 14.5795 75.9867 14.1286C75.9626 13.9088 76.0048 12.5506 76.4922 10.599C76.8105 9.32456 77.3412 8.173 77.5326 7.75201C77.6032 7.59676 77.636 7.71914 77.6349 7.74298C77.5946 8.62068 77.5041 11.4915 77.8716 13.0616C78.3697 15.1886 79.8108 15.4266 80.313 15.4266C81.385 15.4266 82.2618 14.6332 82.5572 12.5454C82.6283 12.043 82.523 11.655 82.2073 11.655" fill="#D1D5DC"></path></svg>