<svg width="84" height="18" viewBox="0 0 84 18" fill="none" xmlns="http://www.w3.org/2000/svg"><path d="M34.8749 3.5455V14.182H33.0119V5.8353H32.9871L29.6585 14.182H28.4166L25.0135 5.8353H24.9887V14.182H23.2748V3.5455H25.9574L29.0376 11.4244H29.0872L32.3412 3.5455H34.8749ZM36.4149 4.35801C36.4149 4.06255 36.5143 3.81633 36.7378 3.61936C36.9614 3.42239 37.2098 3.3239 37.5079 3.3239C37.8308 3.3239 38.104 3.42239 38.3027 3.61936C38.5015 3.81633 38.6257 4.06255 38.6257 4.35801C38.6257 4.65347 38.5263 4.89968 38.3027 5.09665C38.0792 5.29363 37.8308 5.39211 37.5079 5.39211C37.185 5.39211 36.9366 5.29363 36.7378 5.09665C36.5391 4.87506 36.4149 4.62884 36.4149 4.35801ZM38.4269 6.54933V14.182H36.6136V6.54933H38.4269ZM43.9165 12.877C44.1898 12.877 44.4878 12.8278 44.8107 12.6801C45.1337 12.557 45.4317 12.3846 45.705 12.1877V13.8619C45.4069 14.0343 45.084 14.1574 44.7114 14.2312C44.3388 14.3051 43.9414 14.3543 43.4942 14.3543C42.3516 14.3543 41.4325 14.0097 40.737 13.2956C40.0167 12.5816 39.6689 11.6706 39.6689 10.5873C39.6689 9.35618 40.0415 8.3467 40.7619 7.55881C41.4822 6.77092 42.5007 6.37697 43.842 6.37697C44.1898 6.37697 44.5375 6.42622 44.8604 6.50008C45.2082 6.57395 45.4814 6.69706 45.6801 6.79554V8.51903C45.4069 8.32205 45.1088 8.14973 44.8356 8.05124C44.5375 7.95275 44.2394 7.87889 43.9414 7.87889C43.221 7.87889 42.6497 8.10046 42.2026 8.56827C41.7555 9.03608 41.5567 9.65164 41.5567 10.4395C41.5567 11.2028 41.7803 11.8183 42.2026 12.2369C42.6249 12.6555 43.1962 12.877 43.9165 12.877ZM50.8468 6.42622C50.9958 6.42622 51.12 6.42622 51.2442 6.45084C51.3684 6.47546 51.4678 6.50008 51.5423 6.5247V8.3467C51.4429 8.27284 51.3187 8.19895 51.12 8.1497C50.9213 8.10046 50.7226 8.05124 50.4493 8.05124C50.0022 8.05124 49.6296 8.24821 49.3316 8.61754C49.0335 8.98686 48.8596 9.55316 48.8596 10.341V14.182H47.0463V6.54933H48.8596V7.75578H48.8844C49.0583 7.33722 49.3067 7.01714 49.6296 6.77092C49.9774 6.54933 50.3748 6.42622 50.8468 6.42622ZM51.6417 10.4888C51.6417 9.23305 52.0142 8.22359 52.7098 7.48495C53.4301 6.7463 54.4237 6.37697 55.6905 6.37697C56.8828 6.37697 57.8267 6.72168 58.4974 7.4357C59.1681 8.14973 59.5158 9.10997 59.5158 10.3164C59.5158 11.5475 59.1432 12.5324 58.4477 13.271C57.7274 14.0097 56.7586 14.379 55.5166 14.379C54.3243 14.379 53.3804 14.0343 52.6849 13.3449C51.9894 12.6309 51.6417 11.6706 51.6417 10.4888ZM53.5295 10.4149C53.5295 11.2028 53.7033 11.8183 54.0759 12.2369C54.4485 12.6555 54.9702 12.877 55.6408 12.877C56.2867 12.877 56.8083 12.6801 57.1561 12.2369C57.5038 11.8183 57.6777 11.2028 57.6777 10.3656C57.6777 9.55313 57.5038 8.93762 57.1561 8.49443C56.8083 8.07586 56.2867 7.85427 55.6657 7.85427C54.995 7.85427 54.4982 8.07584 54.1256 8.51903C53.7033 8.98684 53.5295 9.60237 53.5295 10.4149ZM62.2234 8.56827C62.2234 8.81448 62.2979 9.03608 62.4718 9.18381C62.6456 9.33154 62.9934 9.50391 63.5647 9.72551C64.285 10.021 64.8067 10.341 65.0799 10.6857C65.378 11.0551 65.527 11.4736 65.527 11.9907C65.527 12.7047 65.2538 13.271 64.6825 13.7142C64.136 14.1574 63.366 14.3543 62.4221 14.3543C62.0991 14.3543 61.7514 14.3051 61.354 14.2312C60.9565 14.1574 60.6336 14.0589 60.3604 13.9358V12.163C60.6833 12.3846 61.0559 12.5816 61.4285 12.7047C61.8011 12.8278 62.1488 12.9017 62.4718 12.9017C62.8692 12.9017 63.1921 12.8524 63.366 12.7293C63.5647 12.6062 63.6641 12.4339 63.6641 12.163C63.6641 11.9168 63.5647 11.7198 63.366 11.5229C63.1673 11.3505 62.7698 11.1536 62.2234 10.932C61.5527 10.6611 61.0807 10.341 60.8075 9.99632C60.5343 9.65162 60.3852 9.20846 60.3852 8.66678C60.3852 7.97738 60.6585 7.41106 61.2049 6.96787C61.7514 6.52468 62.4718 6.30311 63.3411 6.30311C63.6144 6.30311 63.9125 6.32773 64.2354 6.4016C64.5583 6.47546 64.8564 6.54933 65.0799 6.62319V8.37132C64.8315 8.22359 64.5583 8.07584 64.2354 7.95273C63.9125 7.82962 63.5895 7.7804 63.2915 7.7804C62.9437 7.7804 62.6705 7.85427 62.4966 7.97738C62.3227 8.14973 62.2234 8.32205 62.2234 8.56827ZM66.2971 10.4888C66.2971 9.23305 66.6697 8.22359 67.3652 7.48495C68.0855 6.7463 69.0791 6.37697 70.3459 6.37697C71.5382 6.37697 72.4821 6.72168 73.1528 7.4357C73.8235 8.14973 74.1712 9.10997 74.1712 10.3164C74.1712 11.5475 73.7986 12.5324 73.1031 13.271C72.3828 14.0097 71.414 14.379 70.1721 14.379C68.9797 14.379 68.0358 14.0343 67.3403 13.3449C66.6697 12.6309 66.2971 11.6706 66.2971 10.4888ZM68.1849 10.4149C68.1849 11.2028 68.3588 11.8183 68.7314 12.2369C69.1039 12.6555 69.6256 12.877 70.2962 12.877C70.9421 12.877 71.4637 12.6801 71.8115 12.2369C72.1592 11.8183 72.3331 11.2028 72.3331 10.3656C72.3331 9.55313 72.1592 8.93762 71.8115 8.49443C71.4637 8.07586 70.9421 7.85427 70.3211 7.85427C69.6504 7.85427 69.1536 8.07584 68.781 8.51903C68.3836 8.98684 68.1849 9.60237 68.1849 10.4149ZM80.2073 8.02659H77.4997V14.182H75.6616V8.02659H74.3699V6.54933H75.6616V5.4906C75.6616 4.70271 75.9349 4.03793 76.4565 3.52087C76.9781 3.00382 77.6488 2.75761 78.4685 2.75761C78.6921 2.75761 78.8908 2.78223 79.0647 2.78223C79.2385 2.78223 79.3876 2.83147 79.5118 2.88071V4.43187C79.4621 4.40725 79.3379 4.35801 79.1888 4.30876C79.0398 4.25952 78.8659 4.2349 78.6672 4.2349C78.2946 4.2349 77.9965 4.35801 77.7978 4.5796C77.5991 4.8012 77.4997 5.17052 77.4997 5.61371V6.5247H80.2073V4.8012L82.0206 4.25952V6.5247H83.8587V8.002H82.0206V11.5721C82.0206 12.0399 82.1199 12.36 82.269 12.557C82.4428 12.754 82.7161 12.8524 83.0887 12.8524C83.188 12.8524 83.3122 12.8278 83.4613 12.7786C83.6103 12.7293 83.7345 12.6801 83.8339 12.6062V14.0835C83.7097 14.1574 83.5358 14.2066 83.2626 14.2559C82.9893 14.3051 82.7409 14.3297 82.4677 14.3297C81.6977 14.3297 81.1263 14.1327 80.7538 13.7388C80.3812 13.3449 80.1824 12.7293 80.1824 11.9168L80.2073 8.02659Z" fill="#D1D5DC"></path><path d="M8.49517 0H0V8.42057H8.49517V0Z" fill="#D1D5DC"></path><path d="M17.8845 0H9.38933V8.42057H17.8845V0Z" fill="#D1D5DC"></path><path d="M8.49517 9.30693H0V17.7275H8.49517V9.30693Z" fill="#D1D5DC"></path><path d="M17.8845 9.30693H9.38933V17.7275H17.8845V9.30693Z" fill="#D1D5DC"></path></svg>